<?xml version="1.0" encoding="UTF-8" standalone="no"?>
<!DOCTYPE svg PUBLIC "-//W3C//DTD SVG 1.1//EN" "http://www.w3.org/Graphics/SVG/1.1/DTD/svg11.dtd">
<svg width="100%" height="100%" viewBox="0 0 16 16" version="1.1" xmlns="http://www.w3.org/2000/svg" xmlns:xlink="http://www.w3.org/1999/xlink" xml:space="preserve" xmlns:serif="http://www.serif.com/" style="fill-rule:evenodd;clip-rule:evenodd;stroke-linejoin:round;stroke-miterlimit:2;">
    <rect id="_1" serif:id="1" x="0" y="0" width="16" height="16" style="fill:none;"/>
    <g id="_11" serif:id="1">
        <g transform="matrix(1,0,0,1,-0.396132,0.0276873)">
            <g transform="matrix(0.0228125,0,0,0.0228125,9.02173,4.9853)">
                <path d="M47,345C47,345 44,285 44,245C44,229 45,217 46,213C53,193 93,164 116,164C145,164 157,197 157,222C157,276 111,330 68,357C64,359 61,360 58,360C49,360 47,350 47,345ZM12,434C15,438 18,439 21,439C24,439 27,437 27,437C57,420 81,393 106,376C195,314 226,253 226,207C226,150 182,114 136,111C119,111 95,119 81,128C75,133 64,142 59,142C57,142 56,142 54,141C47,138 43,131 43,124C44,102 50,-138 50,-158C50,-169 41,-175 31,-175C17,-175 1,-165 0,-147C0,-147 4,424 12,434Z" style="fill-rule:nonzero;"/>
            </g>
            <g transform="matrix(0.0200672,0,0,0.0200672,2.6149,7.92801)">
                <path d="M168,47C162,67 115,87 92,87C86,87 81,85 80,82C78,78 77,56 77,32C77,1 78,-34 80,-42C82,-59 128,-80 153,-80C160,-80 166,-78 168,-74C170,-69 172,-44 172,-17C172,10 170,38 168,47ZM211,-106L237,-116C244,-119 249,-127 249,-133L249,-204C249,-209 246,-212 242,-212C240,-212 239,-212 237,-211C237,-211 217,-203 212,-202C205,-202 198,-207 198,-215L198,-337C198,-343 192,-348 184,-348C174,-348 168,-343 168,-337L168,-207C167,-197 164,-184 155,-178C143,-171 109,-157 92,-153C83,-153 80,-165 80,-173L80,-293C80,-299 73,-304 66,-304C56,-304 50,-299 50,-293L50,-158C50,-144 44,-134 38,-131C32,-128 12,-120 12,-120C5,-118 0,-110 0,-104L0,-33C0,-27 3,-24 8,-24C12,-24 31,-33 34,-35C35,-35 36,-36 37,-36C44,-36 50,-26 50,-18L50,81C50,92 45,101 39,104C33,106 12,115 12,115C5,117 0,125 0,131L0,202C0,208 3,211 8,211C9,211 11,210 12,210C12,210 26,204 35,201C36,200 37,200 38,200C45,200 50,211 50,216L50,339C50,345 56,350 63,350C73,350 80,345 80,339L80,200C80,187 85,180 90,178L151,153C152,153 154,152 155,152C163,152 168,164 168,170L168,295C168,301 174,306 181,306C192,306 198,301 198,295L198,153C198,145 202,133 209,130C216,127 237,119 237,119C244,116 249,108 249,102L249,31C249,26 246,23 242,23C240,23 239,23 237,24L211,34C205,34 198,28 198,16L198,-77C198,-84 203,-103 211,-106Z" style="fill-rule:nonzero;"/>
            </g>
        </g>
    </g>
</svg>
