<?xml version="1.0" encoding="UTF-8" standalone="no"?>
<!DOCTYPE svg PUBLIC "-//W3C//DTD SVG 1.1//EN" "http://www.w3.org/Graphics/SVG/1.1/DTD/svg11.dtd">
<svg width="100%" height="100%" viewBox="0 0 16 16" version="1.1" xmlns="http://www.w3.org/2000/svg" xmlns:xlink="http://www.w3.org/1999/xlink" xml:space="preserve" xmlns:serif="http://www.serif.com/" style="fill-rule:evenodd;clip-rule:evenodd;stroke-linejoin:round;stroke-miterlimit:2;">
    <g transform="matrix(1,0,0,1,-224,0)">
        <g id="画板2" transform="matrix(1,0,0,1,-0.333333,0)">
            <rect x="224.333" y="0" width="16" height="16" style="fill:none;"/>
            <g transform="matrix(0.0380952,0,0,0.0380952,225.876,1.42769)">
                <path d="M20,243L326,140C339,137 339,130 339,122C339,114 339,108 326,104L26,2C22,1 18,0 17,0C8,0 5,6 2,14C1,18 0,21 0,24C0,29 3,34 14,38C14,38 230,111 240,115C245,116 247,119 247,122C247,125 245,127 239,129C228,132 14,205 14,205C3,210 0,215 0,220C0,223 1,226 2,229C5,236 9,244 16,244C17,244 19,244 20,243ZM213,303.046C213,280.046 194,261.046 171,261.046C148,261.046 129,280.046 129,303.046C129,326.046 148,345.046 171,345.046C194,345.046 213,326.046 213,303.046Z" style="fill-rule:nonzero;"/>
            </g>
        </g>
    </g>
</svg>
