<?xml version="1.0" encoding="UTF-8" standalone="no"?>
<!DOCTYPE svg PUBLIC "-//W3C//DTD SVG 1.1//EN" "http://www.w3.org/Graphics/SVG/1.1/DTD/svg11.dtd">
<svg width="100%" height="100%" viewBox="0 0 16 16" version="1.1" xmlns="http://www.w3.org/2000/svg" xmlns:xlink="http://www.w3.org/1999/xlink" xml:space="preserve" xmlns:serif="http://www.serif.com/" style="fill-rule:evenodd;clip-rule:evenodd;stroke-linejoin:round;stroke-miterlimit:2;">
    <g transform="matrix(1,0,0,1,-2240,0)">
        <g id="画板11" transform="matrix(1,0,0,1,-0.333333,0)">
            <rect x="2240.33" y="0" width="16" height="16" style="fill:none;"/>
            <g transform="matrix(0.030664,0,0,0.030664,2240.35,2.17384)">
                <path d="M82,130C93,130 133,139 133,154C133,157 131,162 129,167L125,177C120,190 116,193 103,196C90,199 78,201 68,201C35,201 27,185 27,171C27,153 42,130 82,130ZM189,213C198,213 203,266 203,275C203,319 176,359 147,359C139,359 136,354 136,347C136,339 140,326 144,316C144,315 145,315 183,220C185,215 186,213 189,213ZM266,-10C262,-10 256,-8 253,-7L204,9C195,12 191,15 187,25L151,113C147,123 146,125 143,125C139,125 133,120 124,116C110,110 97,107 82,107C35,107 0,135 0,177C0,208 21,234 66,234C78,234 91,232 97,232C99,232 100,233 100,235C100,237 99,240 97,245L86,272C75,299 67,319 67,340C67,368 86,390 124,390C176,390 226,348 226,274C226,250 222,228 213,206C211,201 210,199 210,196C210,190 216,185 232,176L238,173C273,152 297,138 316,138C325,138 329,141 329,153C329,163 326,175 323,182L250,363C248,368 247,371 247,374C247,378 250,380 258,380L307,380C316,380 319,378 323,368L388,206C401,173 433,136 455,136C461,136 465,138 465,142C465,151 443,154 443,182C443,202 458,214 479,214C503,214 521,194 521,159C521,130 506,106 469,106C443,106 422,120 407,137C398,147 397,151 393,151C388,151 392,144 384,129C377,116 362,107 340,107C300,107 262,127 241,138C228,145 222,149 217,149C215,149 214,148 214,146C214,142 217,136 219,131L269,7C271,2 272,-1 272,-4C272,-8 270,-10 266,-10Z" style="fill-rule:nonzero;"/>
            </g>
        </g>
    </g>
</svg>
