<?xml version="1.0" encoding="UTF-8" standalone="no"?>
<!DOCTYPE svg PUBLIC "-//W3C//DTD SVG 1.1//EN" "http://www.w3.org/Graphics/SVG/1.1/DTD/svg11.dtd">
<svg width="100%" height="100%" viewBox="0 0 16 16" version="1.1" xmlns="http://www.w3.org/2000/svg" xmlns:xlink="http://www.w3.org/1999/xlink" xml:space="preserve" xmlns:serif="http://www.serif.com/" style="fill-rule:evenodd;clip-rule:evenodd;stroke-linejoin:round;stroke-miterlimit:2;">
    <g transform="matrix(1,0,0,1,-1792,0)">
        <g id="_1techTemplate" serif:id="1techTemplate" transform="matrix(1,0,0,1,-0.333333,0)">
            <rect x="1792.33" y="0" width="16" height="16" style="fill:none;"/>
            <g transform="matrix(0.0230906,0,0,0.0230906,1794.56,1.68472)">
                <path d="M293,-8L287,-8C227,-7 181,-1 124,27C74,52 0,108 0,188C0,232 26,286 85,286C131,286 167,233 167,172C167,145 162,140 156,140C148,140 147,149 142,166C138,181 126,214 96,214C67,214 59,188 59,166L59,162C62,68 160,18 245,18C253,18 259,19 259,25C259,33 250,45 244,55C229,78 190,141 190,168C190,194 231,239 245,258C258,276 286,303 286,336C286,356 280,369 265,389C252,407 251,408 232,415C188,431 102,486 102,527C102,544 119,555 136,555C166,555 194,524 238,472L252,455C257,449 261,443 269,443C309,443 324,550 377,550C394,550 407,547 438,518L491,466C499,458 500,455 500,451C500,446 495,439 487,439C481,439 476,442 471,446C449,462 437,470 420,470C397,470 379,453 362,436C345,419 329,410 313,406C302,403 296,404 296,400C296,397 298,394 303,387C322,360 354,311 354,277C354,245 333,226 298,185C269,151 256,131 256,110C256,97 267,67 279,47C295,20 310,17 321,17C375,17 424,58 424,114C424,136 410,148 392,148C375,148 361,143 348,129C342,123 338,115 329,115C323,115 319,120 319,128C319,151 354,220 419,220C465,220 494,183 494,139C494,32 385,-8 293,-8Z" style="fill-rule:nonzero;"/>
            </g>
        </g>
    </g>
</svg>
