<?xml version="1.0" encoding="UTF-8" standalone="no"?>
<!DOCTYPE svg PUBLIC "-//W3C//DTD SVG 1.1//EN" "http://www.w3.org/Graphics/SVG/1.1/DTD/svg11.dtd">
<svg width="100%" height="100%" viewBox="0 0 16 16" version="1.1" xmlns="http://www.w3.org/2000/svg" xmlns:xlink="http://www.w3.org/1999/xlink" xml:space="preserve" xmlns:serif="http://www.serif.com/" style="fill-rule:evenodd;clip-rule:evenodd;stroke-linejoin:round;stroke-miterlimit:2;">
    <rect id="画板1" x="0" y="0" width="16" height="16" style="fill:none;"/>
    <clipPath id="_clip1">
        <rect id="画板11" serif:id="画板1" x="0" y="0" width="16" height="16"/>
    </clipPath>
    <g clip-path="url(#_clip1)">
        <g transform="matrix(1.16239,0,0,1.16239,-4.68195,10.6167)">
            <path d="M11.587,-5.501C11.546,-5.709 11.587,-5.709 11.691,-5.814C12.721,-6.844 13.614,-7.908 14.186,-9.133C13.856,-9.133 10.57,-9.133 10.288,-9.133C10.325,-8.771 10.371,-8.439 10.421,-8.168C10.441,-7.959 10.462,-7.939 10.275,-7.772C7.879,-5.793 5.316,-3.397 5.316,-0.043C5.316,1.798 6.105,3.573 7.713,4.631L14.76,4.631C15.837,3.863 16.504,2.688 16.504,1.228C16.504,-0.897 14.941,-2.793 12.483,-2.793C12.046,-2.793 12.046,-2.793 12.004,-3.084L11.587,-5.501ZM10.969,-9.133L12.016,-9.133C12.016,-9.133 11.502,-8.659 11.254,-8.439C11.129,-8.334 11.066,-8.355 11.025,-8.564C11,-8.737 10.969,-9.133 10.969,-9.133ZM11.337,-2.959C11.379,-2.626 11.379,-2.647 11.087,-2.543C9.608,-2.043 8.671,-0.73 8.671,0.686C8.671,2.186 9.441,3.249 10.587,3.624C10.712,3.686 10.921,3.728 11.025,3.728C11.171,3.728 11.233,3.645 11.233,3.541C11.233,3.436 11.108,3.374 10.983,3.332C10.275,3.041 9.775,2.311 9.775,1.541C9.775,0.603 10.441,-0.126 11.441,-0.397C11.712,-0.459 11.754,-0.459 11.775,-0.272L12.595,4.631L9.184,4.631C7.594,4.017 6.65,2.723 6.65,1.082C6.65,-1.73 8.712,-3.543 10.754,-5.147C10.921,-5.293 10.941,-5.272 10.983,-5.084L11.337,-2.959ZM12.483,-0.293C12.441,-0.501 12.462,-0.543 12.671,-0.543C14.025,-0.418 15.129,0.707 15.129,2.186C15.129,3.228 14.504,4.082 13.566,4.541C13.358,4.645 13.337,4.645 13.296,4.457L12.483,-0.293Z" style="fill:rgb(35,31,32);fill-rule:nonzero;"/>
        </g>
    </g>
</svg>
